<svg width="32" height="30" viewBox="0 0 32 30" fill="none" xmlns="http://www.w3.org/2000/svg">
<path d="M3.53502 16.628L3.53421 16.6272C1.94546 14.9997 1.03369 12.7942 1.00091 10.479C0.968142 8.16383 1.81713 5.93163 3.35961 4.25691C4.90129 2.58305 7.01283 1.59868 9.24241 1.50448C11.3428 1.41574 13.5312 2.66451 15.3236 4.31507C15.7065 4.66758 16.2956 4.66758 16.6784 4.31507C18.4711 2.66429 20.6574 1.41575 22.7576 1.50448C24.9872 1.59868 27.0987 2.58305 28.6404 4.25691C30.1829 5.93163 31.0319 8.16383 30.9991 10.479C30.9663 12.7942 30.0545 14.9997 28.4658 16.6272L28.465 16.628L17.5448 27.8406C17.1304 28.2661 16.5742 28.5 16 28.5C15.4258 28.5 14.8696 28.2661 14.4553 27.8407C14.4552 27.8407 14.4552 27.8407 14.4552 27.8406L3.53502 16.628Z" stroke="#292A2D" stroke-width="2" stroke-linejoin="round"/>
</svg>
