<svg width="25" height="24" viewBox="0 0 25 22" fill="none" xmlns="http://www.w3.org/2000/svg">
<g id="icon_basket" clip-path="url(#clip0_664_1212)">
<path id="Vector 39" d="M1.5 2C1.5 2 4.5 2.47458 4.5 2.94913C4.5 4.89436 5.50804 11.7488 5.87139 14.1563C5.94499 14.644 6.3638 15 6.85695 15H20.5" stroke="#292A2D" stroke-width="1.5" stroke-linecap="round"/>
<path id="Rectangle 138" d="M4.8562 4.94975C4.84122 4.80711 4.94906 4.68114 5.09231 4.67395L22.2545 3.8134C22.4172 3.80523 22.5442 3.95245 22.5121 4.11221L20.9205 12.0525C20.8977 12.1664 20.7994 12.2496 20.6833 12.2533L5.90535 12.721C5.77442 12.7251 5.6625 12.6275 5.64881 12.4972L4.8562 4.94975Z" stroke="#292A2D" stroke-width="1.5"/>
<circle id="Ellipse 138" cx="7" cy="18.5" r="1.75" stroke="#292A2D" stroke-width="1.5"/>
<circle id="Ellipse 139" cx="19" cy="18.5" r="1.75" stroke="#292A2D" stroke-width="1.5"/>
</g>
<defs>
<clipPath id="clip0_664_1212">
<rect width="24" height="22" fill="white" transform="translate(0.5)"/>
</clipPath>
</defs>
</svg>
