<svg width="24" height="24" viewBox="0 0 24 24" fill="none" xmlns="http://www.w3.org/2000/svg">
<g id="Mail_ru">
<g id="Mail.ru">
<path id="back" d="M0.5 12C0.5 5.64873 5.64873 0.5 12 0.5C18.3513 0.5 23.5 5.64873 23.5 12C23.5 18.3513 18.3513 23.5 12 23.5C5.64873 23.5 0.5 18.3513 0.5 12Z" stroke="#292A2D"/>
<circle id="Ellipse 142" cx="12" cy="12" r="3.5" stroke="#292A2D"/>
<path id="Ellipse 143" d="M15.7504 17.9328C15.9894 17.7945 16.0711 17.4887 15.9328 17.2496C15.7945 17.0106 15.4887 16.9289 15.2496 17.0672L15.7504 17.9328ZM16 12.5V12H15V12.5H16ZM12 18C8.36002 18 5.5 15.5423 5.5 12H4.5C4.5 16.1897 7.908 19 12 19V18ZM5.5 12C5.5 8.41015 8.41015 5.5 12 5.5V4.5C7.85786 4.5 4.5 7.85786 4.5 12H5.5ZM12 5.5C15.5899 5.5 18.5 8.41015 18.5 12H19.5C19.5 7.85786 16.1421 4.5 12 4.5V5.5ZM15.2496 17.0672C14.2783 17.6291 13.1685 18 12 18V19C13.3815 19 14.6625 18.5621 15.7504 17.9328L15.2496 17.0672ZM18.5 12C18.5 13.9124 17.6837 14.5303 17.2144 14.5638C16.9686 14.5813 16.6855 14.4733 16.4443 14.1575C16.1993 13.8367 16 13.2963 16 12.5H15C15 13.4537 15.2382 14.2258 15.6495 14.7644C16.0645 15.3079 16.6564 15.6062 17.2856 15.5612C18.5663 15.4697 19.5 14.0876 19.5 12H18.5Z" fill="#292A2D"/>
</g>
</g>
</svg>
