<svg width="24" height="24" viewBox="0 0 24 24" fill="none" xmlns="http://www.w3.org/2000/svg">
<g id="Telegram">
<g id="Telegram_2">
<path id="Oval" d="M23.5 12C23.5 18.3513 18.3513 23.5 12 23.5C5.64873 23.5 0.5 18.3513 0.5 12C0.5 5.64873 5.64873 0.5 12 0.5C18.3513 0.5 23.5 5.64873 23.5 12Z" stroke="#292A2D"/>
<path id="Vector 42" d="M9.5 17.5L10.5 14.5L12 15.5L9.5 17.5Z" stroke="#292A2D" stroke-linejoin="round"/>
<path id="Vector 40" d="M18 7L5 12L8 13L16 9L10.5 14.5L15.5 18L18 7Z" stroke="#292A2D" stroke-linejoin="round"/>
<path id="Vector 41" d="M9.5 17.5L8 13L16 9L10.5 14.5L9.5 17.5Z" stroke="#292A2D" stroke-linejoin="round"/>
</g>
</g>
</svg>
