<svg width="24" height="24" viewBox="0 0 24 24" fill="none" xmlns="http://www.w3.org/2000/svg">
<g id="Viber">
<g id="Viber_2">
<path id="Oval" d="M23.5 12C23.5 5.64873 18.3513 0.5 12 0.5C5.64873 0.5 0.5 5.64873 0.5 12C0.5 18.3513 5.64873 23.5 12 23.5C18.3513 23.5 23.5 18.3513 23.5 12Z" stroke="#292A2D"/>
<path id="Path" d="M18.5838 16.3235C18.2853 15.8729 16.682 14.6181 15.8815 14.2078C15.2215 13.8694 15.2483 13.9289 14.8347 13.9682C14.4997 14 14.4521 14.1983 13.9997 14.7604C13.8174 14.9858 13.4997 15.3558 13.0158 15.3558C12.6203 15.3534 11.9027 15.0973 11.3508 14.7604C10.9222 14.4995 10.4213 13.9625 9.99974 13.5C9.50237 12.9568 9.11516 12.5474 8.84751 12.0066C8.50175 11.3117 8.29796 10.724 8.51894 10.4787C8.73992 10.2333 8.99974 10 8.99974 10C8.98578 10.0113 9.71432 9.51137 9.80431 9.24808C9.91799 8.91362 9.88722 8.57207 9.71196 8.22815C9.57695 7.96723 9.25551 7.36764 8.99974 7C8.66107 6.51614 7.78649 5.51231 7.61832 5.37233C7.31517 5.12567 6.92846 4.83393 6.49974 5C5.99974 5.19368 5.16262 6.28571 4.99974 6.5C4.83687 6.71429 4.38321 7.32206 4.36424 7.7253C4.34767 8.05735 4.55134 8.61952 4.55134 8.61952C5.49974 11.5 8.99976 15.5 9.99976 16.5C10.4998 17 11.6829 18.107 14.9997 19.3122C16.4997 19.8573 16.822 19.5873 17.2933 19.3122C17.4922 19.1936 18.225 18.3676 18.4997 18C18.7259 17.545 18.9997 17.3717 18.9997 17C18.9997 16.8092 18.5838 16.3235 18.5838 16.3235Z" fill="#292A2D"/>
<path id="Vector 45" d="M12 4.99996C12.5 4.99996 13.5 4.74997 15 5.49996C15.6356 5.81775 17 6.99996 17.5 7.99996C17.5 7.99996 18.3069 9.159 18.5 10.5C18.6113 11.273 18.5 12.5 18.5 12.5" stroke="#292A2D" stroke-linecap="round" stroke-linejoin="round"/>
<path id="Ellipse 141" d="M13 9C14 9 14.5 10.2 14.5 11" stroke="#292A2D" stroke-linecap="round"/>
<path id="Vector 44" d="M12 7C13.5 7 14.772 7.77205 15 8C16 9 16.5 10 16.5 11.5" stroke="#292A2D" stroke-linecap="round" stroke-linejoin="round"/>
</g>
</g>
</svg>
