<svg width="24" height="24" viewBox="0 0 24 24" fill="none" xmlns="http://www.w3.org/2000/svg">
<g id="VK">
<g id="VK_2">
<path id="back" d="M0.5 12C0.5 5.64873 5.64873 0.5 12 0.5C18.3513 0.5 23.5 5.64873 23.5 12C23.5 18.3513 18.3513 23.5 12 23.5C5.64873 23.5 0.5 18.3513 0.5 12Z" stroke="#292A2D"/>
<path id="Shape" d="M12.6282 16.0001C12.6282 16.0001 12.8592 15.9129 12.9775 15.7881C13.0858 15.6738 13.0821 15.0001 13.0821 15.0001C13.0821 15.0001 13.0241 14.1488 13.5005 14.0001C13.97 13.8538 14.6165 15.2762 15.2563 15.707C15.7396 16.0327 16.0004 16.0001 16.0004 16.0001H18.0004C18.0004 16.0001 19.0005 16.0001 18.2864 15.1939C18.2513 15.1374 17.7652 14.5001 16.7416 13.5672C15.6692 12.5907 16.0004 12.6201 17.2913 10.9307C18.0777 9.90201 18.5988 9.58388 18.5005 9.31533C18.4072 9.05846 17.5004 9.00006 17.5004 9.00006H16.0004C16.0004 9.00006 15.715 9.07753 15.5355 9.18321C15.4323 9.24405 15.3653 9.386 15.3653 9.386C15.3653 9.386 15.061 10.1818 14.6547 10.859C13.7976 12.2872 13.4552 12.3628 13.315 12.2743C12.9888 12.0672 13.0702 11.4434 13.0702 11.0004C13.0702 9.61583 13.2843 9.03879 12.6538 8.88946C12.5004 8.85313 12.5357 8.80712 12.0004 8.80159C11.3137 8.79483 10.4877 8.80404 10.1584 8.96198C9.9393 9.06706 9.50049 9.31533 9.87357 9.31533C10.0007 9.33192 10.2886 9.39153 10.4414 9.59556C10.6386 9.85919 10.6317 10.4504 10.6317 10.4504C10.6317 10.4504 10.745 12.0801 10.3669 12.2823C10.1077 12.4212 9.75211 12.1379 8.98771 10.8418C8.59643 10.1781 8.30093 9.44438 8.30093 9.44438C8.30093 9.44438 8.24396 9.30734 8.14192 9.2336C8.01858 9.14449 7.84642 9.11684 7.84642 9.11684L6.01773 9.12851C6.01773 9.12851 5.54765 9.12854 5.50047 9.18321C5.45328 9.2379 5.50048 9.50006 5.50048 9.50006C5.50048 9.50006 7.06699 12.8612 8.68846 14.5185C10.1753 16.0376 11.8631 16.0001 11.8631 16.0001H12.6282Z" fill="#292A2D"/>
</g>
</g>
</svg>
