<svg width="24" height="24" viewBox="0 0 24 24" fill="none" xmlns="http://www.w3.org/2000/svg">
<g id="WhatsApp">
<g id="WhatsApp_2">
<path id="Oval" d="M23.5 12C23.5 18.3513 18.3513 23.5 12 23.5C5.64873 23.5 0.5 18.3513 0.5 12C0.5 5.64873 5.64873 0.5 12 0.5C18.3513 0.5 23.5 5.64873 23.5 12Z" stroke="#292A2D"/>
<path id="Vector 43" d="M9 10C9 9.2 9.5 8.5 10 8.5L11 10C11 10 10 10.6 10 11C10 11.4 12 13.5 13.5 13.5L14 13C14.5 12.5 15 13 15.5 13.5C15.5 14.0523 15.1477 14.3705 14.5 14.5C12 15 9 11 9 10Z" fill="#292A2D" stroke="#292A2D" stroke-linejoin="round"/>
<path id="Ellipse 140" d="M6.48317 15.3728L6.53633 15.1731L6.43303 14.9942C5.83967 13.9663 5.5 12.7736 5.5 11.5C5.5 7.63401 8.63401 4.5 12.5 4.5C16.366 4.5 19.5 7.63401 19.5 11.5C19.5 15.366 16.366 18.5 12.5 18.5C11.1267 18.5 9.84717 18.105 8.76703 17.4227L8.5675 17.2967L8.34336 17.3706L5.72092 18.2357L6.48317 15.3728Z" stroke="#292A2D"/>
</g>
</g>
</svg>
