<svg width="26" height="22" viewBox="0 0 26 22" fill="none" xmlns="http://www.w3.org/2000/svg">
<path d="M2 2C2 2 5 2.47458 5 2.94913C5 4.89436 6.00804 11.7488 6.37139 14.1563C6.44499 14.644 6.8638 15 7.35695 15H21" stroke="#F2F2F1" stroke-width="1.5" stroke-linecap="round"/>
<path d="M5.35965 5.44532C5.34404 5.3048 5.44797 5.17929 5.58895 5.16845L22.7708 3.84677C22.9338 3.83423 23.0647 3.9788 23.0362 4.13969L21.6226 12.1098C21.6019 12.2266 21.5019 12.3128 21.3833 12.316L6.39912 12.7252C6.26916 12.7287 6.15818 12.6321 6.14382 12.5029L5.35965 5.44532Z" stroke="#F2F2F1" stroke-width="1.5"/>
<circle cx="7.5" cy="18.5" r="1.75" stroke="#F2F2F1" stroke-width="1.5"/>
<circle cx="19.5" cy="18.5" r="1.75" stroke="#F2F2F1" stroke-width="1.5"/>
</svg>
