<svg width="24" height="24" viewBox="0 0 24 24" fill="none" xmlns="http://www.w3.org/2000/svg">
<path fill-rule="evenodd" clip-rule="evenodd" d="M22 12C22 17.5228 17.5228 22 12 22C6.47715 22 2 17.5228 2 12C2 6.47715 6.47715 2 12 2C17.5228 2 22 6.47715 22 12ZM24 12C24 18.6274 18.6274 24 12 24C5.37258 24 0 18.6274 0 12C0 5.37258 5.37258 0 12 0C18.6274 0 24 5.37258 24 12ZM18.3696 7.99374C18.6423 7.51346 18.474 6.90307 17.9937 6.63039C17.5135 6.35771 16.9031 6.52599 16.6304 7.00626L11.3447 16.3158L6.7348 11.3217C6.3602 10.9159 5.72754 10.8906 5.32172 11.2652C4.9159 11.6398 4.89059 12.2725 5.2652 12.6783L10.8037 18.6783C11.0202 18.9128 11.3356 19.0299 11.6527 18.9935C11.9698 18.957 12.2505 18.7713 12.4081 18.4937L18.3696 7.99374Z" fill="#F2F2F1"/>
</svg>
