<svg width="24" height="24" viewBox="0 0 24 24" fill="none" xmlns="http://www.w3.org/2000/svg">
<path d="M12 0L15.4442 3.68508L20.4853 3.51472L20.3149 8.55585L24 12L20.3149 15.4442L20.4853 20.4853L15.4442 20.3149L12 24L8.55585 20.3149L3.51472 20.4853L3.68508 15.4442L0 12L3.68508 8.55585L3.51472 3.51472L8.55585 3.68508L12 0Z" fill="#A50B34"/>
<path d="M16 8L8 16" stroke="#FDFDFD" stroke-linecap="round"/>
<path d="M11.5 8.5C11.5 9.60457 10.6046 10.5 9.5 10.5C8.39543 10.5 7.5 9.60457 7.5 8.5C7.5 7.39543 8.39543 6.5 9.5 6.5C10.6046 6.5 11.5 7.39543 11.5 8.5Z" stroke="#FDFDFD"/>
<circle cx="14.5" cy="15.5" r="2" stroke="#FDFDFD"/>
</svg>
