<svg width="50" height="54" viewBox="0 0 50 54" fill="none" xmlns="http://www.w3.org/2000/svg">
<rect x="6.99219" y="5.32812" width="36.0077" height="43.6719" rx="2.50694" stroke="#292A2D" stroke-width="4"/>
<path d="M16 13.7964C16 12.5762 16.8785 11.5332 18.081 11.3259L38.0671 7.88001C39.5993 7.61583 41 8.79569 41 10.3505V43.6495C41 45.2043 39.5993 46.3842 38.0671 46.12L18.081 42.6741C16.8785 42.4668 16 41.4238 16 40.2036V13.7964Z" stroke="#292A2D" stroke-width="4"/>
<path d="M22.3541 25.2366C21.9325 25.5934 21.8799 26.2243 22.2366 26.6459L28.0501 33.5164C28.4068 33.938 29.0378 33.9906 29.4594 33.6339C29.881 33.2771 29.9336 32.6461 29.5769 32.2245L24.4093 26.1174L30.5164 20.9499C30.938 20.5932 30.9906 19.9622 30.6339 19.5406C30.2771 19.119 29.6461 19.0664 29.2245 19.4231L22.3541 25.2366ZM34.917 27.9965C35.4673 28.0424 35.9507 27.6334 35.9965 27.083C36.0424 26.5327 35.6334 26.0493 35.083 26.0035L34.917 27.9965ZM22.917 26.9965L34.917 27.9965L35.083 26.0035L23.083 25.0035L22.917 26.9965Z" fill="#292A2D"/>
</svg>
