<svg width="31" height="22" viewBox="0 0 31 22" fill="none" xmlns="http://www.w3.org/2000/svg">
<path fill-rule="evenodd" clip-rule="evenodd" d="M0.944336 2.1667C0.944336 0.970081 1.91439 3.05176e-05 3.111 3.05176e-05H20.7777C21.9743 3.05176e-05 22.9443 0.970083 22.9443 2.1667V4.24381L26.6701 5.29856C28.6072 5.84694 29.9443 7.61519 29.9443 9.6284V15.8333C29.9443 15.8894 29.9422 15.945 29.938 16H29.9443C30.4966 16 30.9443 16.4477 30.9443 17C30.9443 17.5523 30.4966 18 29.9443 18H27.9443C27.9324 18 27.9206 17.9998 27.9088 17.9994C27.9322 18.1629 27.9443 18.3301 27.9443 18.5C27.9443 20.433 26.3773 22 24.4443 22C22.5113 22 20.9443 20.433 20.9443 18.5C20.9443 18.327 20.9569 18.1569 20.9811 17.9906C20.9142 17.9968 20.8463 18 20.7777 18H10.909C10.9323 18.1633 10.9444 18.3303 10.9444 18.5C10.9444 20.433 9.37741 22 7.44442 22C5.51142 22 3.94442 20.433 3.94442 18.5C3.94442 18.3303 3.9565 18.1633 3.97986 18H3.111C1.91439 18 0.944336 17.03 0.944336 15.8334V2.1667ZM22.9443 15.3368C23.399 15.1209 23.9075 15 24.4443 15C25.398 15 26.2625 15.3814 26.8938 16H27.7777C27.8697 16 27.9443 15.9254 27.9443 15.8333V9.6284C27.9443 8.50995 27.2015 7.52759 26.1253 7.22293L22.9443 6.32241L22.9443 15.3368ZM9.94434 16C9.92783 16 9.91142 16.0004 9.8951 16.0012C9.26373 15.3819 8.39867 15 7.44442 15C6.46267 15 5.57534 15.4043 4.93975 16.0553C4.83679 16.0195 4.72617 16 4.611 16H3.111C3.01895 16 2.94434 15.9254 2.94434 15.8334V2.1667C2.94434 2.07465 3.01896 2.00003 3.111 2.00003H20.7777C20.8697 2.00003 20.9443 2.07465 20.9443 2.1667L20.9443 3.67761V5.00001V15.8345C20.9437 15.926 20.8693 16 20.7777 16H9.94434ZM7.44442 20C8.27284 20 8.94442 19.3285 8.94442 18.5C8.94442 17.6716 8.27284 17 7.44442 17C6.61599 17 5.94442 17.6716 5.94442 18.5C5.94442 19.3285 6.61599 20 7.44442 20ZM25.9443 18.5C25.9443 19.3285 25.2728 20 24.4443 20C23.6159 20 22.9443 19.3285 22.9443 18.5C22.9443 17.6716 23.6159 17 24.4443 17C25.2728 17 25.9443 17.6716 25.9443 18.5Z" fill="#292A2D"/>
</svg>
