<svg width="58" height="58" viewBox="0 0 58 58" fill="none" xmlns="http://www.w3.org/2000/svg">
<g id="icon">
<path id="Vector 39" d="M3 7C3 7 10.4839 7.86003 10.4839 9.03321C10.4839 13.6612 12.8931 29.6381 13.9102 36.1767C14.1641 37.8089 15.5696 39 17.2213 39H51" stroke="#292A2D" stroke-width="4" stroke-linecap="round"/>
<path id="Rectangle 138" d="M11.4717 16.0519C11.3638 15.2737 11.9341 14.5656 12.7173 14.5051L53.7924 11.3311C54.6852 11.2621 55.4011 12.0578 55.2384 12.9385L51.9116 30.9422C51.7944 31.5764 51.2488 32.0418 50.604 32.0576L15.0314 32.9272C14.3382 32.9442 13.7426 32.4381 13.6474 31.7512L11.4717 16.0519Z" stroke="#292A2D" stroke-width="4"/>
<circle id="Ellipse 138" cx="17.5" cy="48.5" r="4.5" stroke="#292A2D" stroke-width="4"/>
<circle id="Ellipse 139" cx="46.5" cy="48.5" r="4.5" stroke="#292A2D" stroke-width="4"/>
</g>
</svg>
