<svg width="30" height="30" viewBox="0 0 30 30" fill="none" xmlns="http://www.w3.org/2000/svg">
<path d="M1 10.25C1 9.55964 1.55964 9 2.25 9H25.25C27.3211 9 29 10.6789 29 12.75V23.25C29 25.3211 27.3211 27 25.25 27H4.75C2.67893 27 1 25.3211 1 23.25V10.25Z" stroke="#292A2D" stroke-width="2"/>
<path d="M2 9L10 6.38158L21.0545 2.66341C23.4846 1.84605 26 3.65387 26 6.21775V8.5" stroke="#292A2D" stroke-width="2" stroke-linecap="round"/>
<path d="M17 18C17 15.7909 18.7909 14 21 14H28.75C28.8881 14 29 14.1119 29 14.25V21.75C29 21.8881 28.8881 22 28.75 22H21C18.7909 22 17 20.2091 17 18Z" stroke="#292A2D" stroke-width="2"/>
<circle cx="21" cy="18" r="0.5" stroke="#292A2D"/>
</svg>
