<svg width="25" height="24" viewBox="0 0 25 24" fill="none" xmlns="http://www.w3.org/2000/svg">
<path d="M3.40425 13.2442L3.40364 13.2435C2.21107 12.0078 1.52533 10.3317 1.50069 8.57056C1.47604 6.8094 2.11462 5.11278 3.27259 3.84108C4.42973 2.5703 6.01275 1.82473 7.68217 1.75339C9.25406 1.68622 10.8942 2.63183 12.2396 3.88495C12.5276 4.1532 12.974 4.1532 13.262 3.88495C14.6075 2.63166 16.2461 1.68622 17.8178 1.75339C19.4873 1.82473 21.0703 2.5703 22.2274 3.84108C23.3854 5.11278 24.024 6.8094 23.9993 8.57056C23.9747 10.3317 23.2889 12.0078 22.0964 13.2435L22.0957 13.2442L13.9056 21.7503C13.9056 21.7503 13.9056 21.7503 13.9056 21.7503C13.594 22.0738 13.1777 22.25 12.75 22.25C12.3222 22.25 11.906 22.0738 11.5944 21.7503C11.5944 21.7503 11.5944 21.7503 11.5944 21.7503L3.40425 13.2442Z" stroke="#292A2D" stroke-width="1.5" stroke-linejoin="round"/>
</svg>
