<svg width="160" height="120" viewBox="0 0 160 120" fill="none" xmlns="http://www.w3.org/2000/svg">
<rect width="160" height="120" fill="#A50B34"/>
<path d="M16.3341 71L26.3181 48.6H31.4381L41.4541 71H36.0141L27.8221 51.224H29.8701L21.6461 71H16.3341ZM21.3261 66.2L22.7021 62.264H34.2221L35.6301 66.2H21.3261ZM58.9206 71L51.9446 60.216L56.1366 57.688L64.8086 71H58.9206ZM44.3606 71V48.6H49.5126V71H44.3606ZM48.0086 61.976V57.656H55.8166V61.976H48.0086ZM56.6166 60.376L51.8486 59.8L59.1126 48.6H64.5846L56.6166 60.376ZM67.2371 71V48.6H72.3891V66.776H82.3731V48.6H87.5251V71H67.2371ZM85.9571 75.736V69.784L87.0771 71H82.3731V66.776H90.7251V75.736H85.9571ZM94.1434 71V48.6H99.2954V63.192L109.983 48.6H114.847V71H109.727V56.44L99.0394 71H94.1434ZM120.425 71V48.6H125.577V63.192L136.265 48.6H141.129V71H136.009V56.44L125.321 71H120.425Z" fill="#FDFDFD"/>
</svg>
