<svg width="60" height="60" viewBox="0 0 60 60" fill="none" xmlns="http://www.w3.org/2000/svg">
<g id="icon">
<g id="Union">
<mask id="path-1-inside-1_831_4620" fill="white">
<path fill-rule="evenodd" clip-rule="evenodd" d="M52.9978 17.863C52.8957 8.8914 43.9543 2.81852 35.5342 5.74215L19.8561 11.1859L5.392 15.8015C5.24746 15.8476 5.11182 15.9086 4.98622 15.9823C2.67344 16.7268 1 18.8964 1 21.4567V41.7493C1 49.067 6.93223 54.9993 14.25 54.9993H45.75C53.0678 54.9993 59 49.067 59 41.7493V41.183V29.5242V28.9567C59 24.3141 56.6123 20.2292 52.9978 17.863ZM41.5794 29.7742H55V40.933H41.5794C38.498 40.933 36 38.435 36 35.3536C36 32.2722 38.498 29.7742 41.5794 29.7742ZM41.5794 25.7742H54.438C53.1405 22.2334 49.7403 19.7067 45.75 19.7067H6.75C5.7835 19.7067 5 20.4902 5 21.4567V41.7493C5 46.8579 9.14137 50.9993 14.25 50.9993H45.75C49.7399 50.9993 53.1398 48.4731 54.4375 44.933H41.5794C36.2888 44.933 32 40.6441 32 35.3536C32 30.063 36.2888 25.7742 41.5794 25.7742ZM48.786 16.0562C47.6495 10.9261 42.1463 7.68058 36.8463 9.52085L21.1442 14.9729L21.1203 14.9812L21.0962 14.9889L18.8468 15.7067H45.75C46.7947 15.7067 47.8111 15.8276 48.786 16.0562ZM42 37.8746C43.1046 37.8746 44 36.9717 44 35.8579C44 34.744 43.1046 33.8411 42 33.8411C40.8954 33.8411 40 34.744 40 35.8579C40 36.9717 40.8954 37.8746 42 37.8746Z"/>
</mask>
<path fill-rule="evenodd" clip-rule="evenodd" d="M52.9978 17.863C52.8957 8.8914 43.9543 2.81852 35.5342 5.74215L19.8561 11.1859L5.392 15.8015C5.24746 15.8476 5.11182 15.9086 4.98622 15.9823C2.67344 16.7268 1 18.8964 1 21.4567V41.7493C1 49.067 6.93223 54.9993 14.25 54.9993H45.75C53.0678 54.9993 59 49.067 59 41.7493V41.183V29.5242V28.9567C59 24.3141 56.6123 20.2292 52.9978 17.863ZM41.5794 29.7742H55V40.933H41.5794C38.498 40.933 36 38.435 36 35.3536C36 32.2722 38.498 29.7742 41.5794 29.7742ZM41.5794 25.7742H54.438C53.1405 22.2334 49.7403 19.7067 45.75 19.7067H6.75C5.7835 19.7067 5 20.4902 5 21.4567V41.7493C5 46.8579 9.14137 50.9993 14.25 50.9993H45.75C49.7399 50.9993 53.1398 48.4731 54.4375 44.933H41.5794C36.2888 44.933 32 40.6441 32 35.3536C32 30.063 36.2888 25.7742 41.5794 25.7742ZM48.786 16.0562C47.6495 10.9261 42.1463 7.68058 36.8463 9.52085L21.1442 14.9729L21.1203 14.9812L21.0962 14.9889L18.8468 15.7067H45.75C46.7947 15.7067 47.8111 15.8276 48.786 16.0562ZM42 37.8746C43.1046 37.8746 44 36.9717 44 35.8579C44 34.744 43.1046 33.8411 42 33.8411C40.8954 33.8411 40 34.744 40 35.8579C40 36.9717 40.8954 37.8746 42 37.8746Z" fill="#292A2D"/>
<path d="M35.5342 5.74215L36.8463 9.52085L35.5342 5.74215ZM52.9978 17.863L48.9981 17.9085L49.0224 20.0413L50.8069 21.2096L52.9978 17.863ZM19.8561 11.1859L21.0721 14.9966L21.1203 14.9812L21.1682 14.9646L19.8561 11.1859ZM5.392 15.8015L4.176 11.9908L4.17599 11.9908L5.392 15.8015ZM4.98622 15.9823L6.21201 19.7898L6.63074 19.655L7.01016 19.4325L4.98622 15.9823ZM55 29.7742H59V25.7742H55V29.7742ZM55 40.933V44.933H59V40.933H55ZM54.438 25.7742V29.7742H60.1637L58.1938 24.398L54.438 25.7742ZM54.4375 44.933L58.1931 46.3097L60.1641 40.933H54.4375V44.933ZM36.8463 9.52085L38.1583 13.2995L36.8463 9.52085ZM48.786 16.0562L47.8731 19.9506L54.0675 21.4028L52.6914 15.191L48.786 16.0562ZM21.1442 14.9729L19.8322 11.1942L19.832 11.1943L21.1442 14.9729ZM21.1203 14.9812L22.3363 18.7919L22.3846 18.7765L22.4325 18.7599L21.1203 14.9812ZM21.0962 14.9889L19.8802 11.1782L19.8802 11.1782L21.0962 14.9889ZM18.8468 15.7067L17.6308 11.896L18.8468 19.7067V15.7067ZM36.8463 9.52085C42.7659 7.46545 48.928 11.7532 48.9981 17.9085L56.9976 17.8174C56.8634 6.02956 45.1428 -1.82842 34.2222 1.96345L36.8463 9.52085ZM21.1682 14.9646L36.8463 9.52085L34.2222 1.96345L18.5441 7.40723L21.1682 14.9646ZM6.608 19.6122L21.0721 14.9966L18.6401 7.37523L4.176 11.9908L6.608 19.6122ZM7.01016 19.4325C6.88233 19.5074 6.74718 19.5677 6.60801 19.6121L4.17599 11.9908C3.74775 12.1274 3.34131 12.3098 2.96229 12.5321L7.01016 19.4325ZM5 21.4567C5 20.6836 5.50413 20.0177 6.21201 19.7898L3.76044 12.1747C-0.157258 13.436 -3 17.1091 -3 21.4567H5ZM5 41.7493V21.4567H-3V41.7493H5ZM14.25 50.9993C9.14137 50.9993 5 46.8579 5 41.7493H-3C-3 51.2762 4.72309 58.9993 14.25 58.9993V50.9993ZM45.75 50.9993H14.25V58.9993H45.75V50.9993ZM55 41.7493C55 46.8579 50.8586 50.9993 45.75 50.9993V58.9993C55.2769 58.9993 63 51.2762 63 41.7493H55ZM55 41.183V41.7493H63V41.183H55ZM55 29.5242V41.183H63V29.5242H55ZM55 28.9567V29.5242H63V28.9567H55ZM50.8069 21.2096C53.3404 22.8682 55 25.7197 55 28.9567H63C63 22.9085 59.8841 17.5902 55.1887 14.5163L50.8069 21.2096ZM55 25.7742H41.5794V33.7742H55V25.7742ZM59 40.933V29.7742H51V40.933H59ZM41.5794 44.933H55V36.933H41.5794V44.933ZM32 35.3536C32 40.6441 36.2888 44.933 41.5794 44.933V36.933C40.7071 36.933 40 36.2259 40 35.3536H32ZM41.5794 25.7742C36.2888 25.7742 32 30.063 32 35.3536H40C40 34.4813 40.7071 33.7742 41.5794 33.7742V25.7742ZM54.438 21.7742H41.5794V29.7742H54.438V21.7742ZM45.75 23.7067C48.0085 23.7067 49.9436 25.1348 50.6821 27.1504L58.1938 24.398C56.3375 19.332 51.4722 15.7067 45.75 15.7067V23.7067ZM6.75 23.7067H45.75V15.7067H6.75V23.7067ZM9 21.4567C9 22.6994 7.99264 23.7067 6.75 23.7067V15.7067C3.57436 15.7067 1 18.2811 1 21.4567H9ZM9 41.7493V21.4567H1V41.7493H9ZM14.25 46.9993C11.3505 46.9993 9 44.6488 9 41.7493H1C1 49.067 6.93223 54.9993 14.25 54.9993V46.9993ZM45.75 46.9993H14.25V54.9993H45.75V46.9993ZM50.6819 43.5563C49.9432 45.5715 48.0083 46.9993 45.75 46.9993V54.9993C51.4715 54.9993 56.3364 51.3748 58.1931 46.3097L50.6819 43.5563ZM41.5794 48.933H54.4375V40.933H41.5794V48.933ZM28 35.3536C28 42.8533 34.0797 48.933 41.5794 48.933V40.933C38.498 40.933 36 38.435 36 35.3536H28ZM41.5794 21.7742C34.0797 21.7742 28 27.8539 28 35.3536H36C36 32.2722 38.498 29.7742 41.5794 29.7742V21.7742ZM38.1583 13.2995C41.1846 12.2488 44.2588 14.1137 44.8807 16.9213L52.6914 15.191C51.0403 7.73836 43.108 3.11239 35.5342 5.74215L38.1583 13.2995ZM22.4563 18.7516L38.1583 13.2995L35.5342 5.74215L19.8322 11.1942L22.4563 18.7516ZM22.4325 18.7599L22.4564 18.7516L19.832 11.1943L19.8081 11.2026L22.4325 18.7599ZM22.3122 18.7996L22.3363 18.7919L19.9044 11.1705L19.8802 11.1782L22.3122 18.7996ZM20.0628 19.5174L22.3122 18.7996L19.8802 11.1782L17.6308 11.896L20.0628 19.5174ZM45.75 11.7067H18.8468V19.7067H45.75V11.7067ZM49.699 12.1618C48.427 11.8635 47.1043 11.7067 45.75 11.7067V19.7067C46.4851 19.7067 47.1952 19.7917 47.8731 19.9506L49.699 12.1618ZM40 35.8579C40 34.794 40.8641 33.8746 42 33.8746V41.8746C45.345 41.8746 48 39.1493 48 35.8579H40ZM42 37.8411C40.8641 37.8411 40 36.9217 40 35.8579H48C48 32.5664 45.345 29.8411 42 29.8411V37.8411ZM44 35.8579C44 36.9217 43.1359 37.8411 42 37.8411V29.8411C38.655 29.8411 36 32.5664 36 35.8579H44ZM42 33.8746C43.1359 33.8746 44 34.794 44 35.8579H36C36 39.1493 38.655 41.8746 42 41.8746V33.8746Z" fill="#292A2D" mask="url(#path-1-inside-1_831_4620)"/>
</g>
</g>
</svg>
