<svg width="61" height="60" viewBox="0 0 61 60" fill="none" xmlns="http://www.w3.org/2000/svg">
<g id="icon">
<path id="Union" fill-rule="evenodd" clip-rule="evenodd" d="M3.00116 8.66414C3.00116 5.71862 5.38898 3.33081 8.33449 3.33081H43.5419C46.4875 3.33081 48.8753 5.71863 48.8753 8.66414V21.1879H52.9975C55.943 21.1879 58.3308 23.5757 58.3308 26.5212V53.3279C58.3308 56.1877 54.9661 57.7197 52.809 55.8421L45.3213 49.3246C45.0786 49.1134 44.7677 48.997 44.4459 48.997H33.7053H17.7901C14.8445 48.997 12.4567 46.6092 12.4567 43.6637V33.6542L8.83062 37.7513C6.7969 40.0491 3.00116 38.6107 3.00116 35.5421V8.66414ZM44.8753 8.66414V21.1879H17.7901C14.8445 21.1879 12.4567 23.5757 12.4567 26.5212V27.6411C12.3963 27.6946 12.3384 27.7524 12.2835 27.8144L7.00116 33.7829V8.66414C7.00116 7.92776 7.59811 7.33081 8.33449 7.33081H43.5419C44.2783 7.33081 44.8753 7.92776 44.8753 8.66414ZM17.7901 25.1879C17.0537 25.1879 16.4567 25.7848 16.4567 26.5212V43.6637C16.4567 44.4001 17.0537 44.997 17.7901 44.997H33.7053H44.4459C45.733 44.997 46.9767 45.4625 47.9475 46.3075L54.3308 51.8637V26.5212C54.3308 25.7848 53.7339 25.1879 52.9975 25.1879H17.7901ZM23.9124 37.7378C25.4045 37.7378 26.614 36.5534 26.614 35.0924C26.614 33.6313 25.4045 32.4469 23.9124 32.4469C22.4204 32.4469 21.2109 33.6313 21.2109 35.0924C21.2109 36.5534 22.4204 37.7378 23.9124 37.7378ZM36.7448 35.0924C36.7448 36.5534 35.5353 37.7378 34.0433 37.7378C32.5512 37.7378 31.3417 36.5534 31.3417 35.0924C31.3417 33.6313 32.5512 32.4469 34.0433 32.4469C35.5353 32.4469 36.7448 33.6313 36.7448 35.0924ZM44.1743 37.7378C45.6663 37.7378 46.8758 36.5534 46.8758 35.0924C46.8758 33.6313 45.6663 32.4469 44.1743 32.4469C42.6822 32.4469 41.4727 33.6313 41.4727 35.0924C41.4727 36.5534 42.6822 37.7378 44.1743 37.7378Z" fill="#292A2D"/>
</g>
</svg>
