<svg width="60" height="60" viewBox="0 0 60 60" fill="none" xmlns="http://www.w3.org/2000/svg">
<g id="icon" clip-path="url(#clip0_831_4920)">
<path id="Union" fill-rule="evenodd" clip-rule="evenodd" d="M11.0367 10.5654C6.62599 14.9762 4.0243 20.8676 3.83324 26.965C3.64458 32.986 5.82471 38.7264 9.93627 42.9327L7.57827 45.2907C6.79722 46.0718 6.79722 47.3381 7.57827 48.1192L18.3261 58.867C19.1072 59.6481 20.3735 59.6481 21.1545 58.867L25.5916 54.43C25.699 54.3582 25.801 54.2749 25.8958 54.18C25.9906 54.0852 26.0739 53.9832 26.1457 53.8758L35.0191 45.0024C35.1268 44.9305 35.229 44.8471 35.324 44.752C35.419 44.657 35.5025 44.5548 35.5744 44.4472L44.4471 35.5745C44.5547 35.5026 44.657 35.4191 44.752 35.3241C44.847 35.229 44.9305 35.1268 45.0024 35.0192L53.8758 26.1458C53.9832 26.074 54.0851 25.9907 54.18 25.8959C54.2748 25.801 54.3581 25.699 54.4299 25.5917L58.8669 21.1547C59.648 20.3736 59.648 19.1073 58.8669 18.3262L48.1191 7.57838C47.338 6.79733 46.0717 6.79733 45.2906 7.57838L43.404 9.46496C39.1977 5.35341 33.4573 3.17327 27.4363 3.36194C21.3389 3.553 15.4475 6.15468 11.0367 10.5654ZM49.624 18.5114L52.7386 21.6261L54.6243 19.7404L46.7048 11.821L44.7669 13.759C43.9858 14.5401 42.7195 14.5401 41.9384 13.759C41.8058 13.6264 41.6957 13.4798 41.6081 13.324L40.7471 12.4629C37.3354 9.05122 32.6019 7.20204 27.5616 7.35997C22.5154 7.51809 17.581 9.67804 13.8652 13.3939C10.1493 17.1097 7.9894 22.0441 7.83128 27.0903C7.67334 32.1306 9.52252 36.8641 12.9342 40.2758L14.1778 41.5193L14.1779 41.5195C14.959 42.3006 14.959 43.5669 14.1779 44.3479L11.8209 46.705L19.7403 54.6244L21.626 52.7387L18.5114 49.624C17.7303 48.843 17.7303 47.5767 18.5114 46.7956C19.2924 46.0146 20.5588 46.0146 21.3398 46.7956L24.4544 49.9103L26.392 47.9728C26.2369 47.8854 26.0909 47.7756 25.9589 47.6436L21.4029 43.0876C20.6219 42.3065 20.6219 41.0402 21.4029 40.2592C22.184 39.4781 23.4503 39.4781 24.2313 40.2592L28.7873 44.8152C28.9194 44.9472 29.0291 45.0931 29.1165 45.2482L31.0541 43.3106L27.9396 40.1961C27.1585 39.415 27.1585 38.1487 27.9396 37.3676C28.7206 36.5866 29.987 36.5866 30.768 37.3676L33.8825 40.4822L35.8199 38.5448C35.6648 38.4574 35.5189 38.3477 35.3869 38.2156L30.8309 33.6596C30.0498 32.8786 30.0498 31.6122 30.8309 30.8312C31.6119 30.0501 32.8783 30.0501 33.6593 30.8312L38.2153 35.3872C38.3473 35.5192 38.4571 35.6651 38.5445 35.8202L40.4821 33.8826L37.3676 30.7681C36.5865 29.987 36.5865 28.7207 37.3676 27.9397C38.1486 27.1586 39.4149 27.1586 40.196 27.9397L43.3105 31.0542L45.248 29.1167C45.093 29.0293 44.9471 28.9196 44.8151 28.7876L40.2591 24.2316C39.478 23.4506 39.478 22.1843 40.2591 21.4032C41.0401 20.6222 42.3065 20.6222 43.0875 21.4032L47.6435 25.9592C47.7755 26.0912 47.8852 26.2371 47.9726 26.3921L49.9102 24.4545L46.7956 21.3399C46.0145 20.5588 46.0145 19.2925 46.7956 18.5114C47.5766 17.7304 48.8429 17.7304 49.624 18.5114ZM17.1525 17.1519C15.8604 18.444 14.8238 19.9689 14.1027 21.6413C13.3816 23.3137 12.9892 25.1035 12.9519 26.9097C12.9147 28.7162 13.2335 30.504 13.8948 32.1698C14.2899 33.1652 15.1122 34.3447 15.8947 35.3461C16.4919 36.1102 17.1507 36.8767 17.7672 37.5395C17.8222 37.6122 17.8829 37.682 17.9492 37.7483C17.9873 37.7864 18.0265 37.8226 18.0668 37.857C18.1935 37.9892 18.3175 38.116 18.438 38.2364L18.5243 38.1501C19.2635 38.4916 20.1682 38.3576 20.7776 37.7483L29.2629 29.263L37.7482 20.7777C38.3575 20.1683 38.4915 19.2636 38.15 18.5244L38.2369 18.4374C38.1145 18.315 37.9855 18.1888 37.8509 18.0599C37.8183 18.0221 37.7841 17.9852 37.7482 17.9493C37.6841 17.8852 37.6167 17.8264 37.5467 17.7728C36.8823 17.1546 36.1133 16.4933 35.3466 15.8942C34.3452 15.1117 33.1658 14.2894 32.1704 13.8943C30.5046 13.233 28.7167 12.9141 26.9103 12.9514C25.1041 12.9887 23.3143 13.3811 21.6418 14.1022C19.9694 14.8233 18.4446 15.8598 17.1525 17.1519ZM26.4344 26.4346L19.4644 33.4046C19.3226 33.2318 19.1827 33.0574 19.0466 32.8831C18.2821 31.9049 17.7789 31.1129 17.6126 30.694C17.151 29.5312 16.9246 28.2738 16.9511 26.9922C16.9775 25.7104 17.2564 24.4298 17.7759 23.225C18.2954 22.02 19.0444 20.9169 19.9809 19.9804C20.9174 19.0439 22.0205 18.2949 23.2255 17.7753C24.4304 17.2558 25.7109 16.977 26.9927 16.9506C28.2743 16.9241 29.5317 17.1504 30.6945 17.612C31.1134 17.7783 31.9054 18.2816 32.8837 19.046C33.0579 19.1822 33.2324 19.3221 33.4051 19.4639L26.4344 26.4346Z" fill="#292A2D"/>
</g>
<defs>
<clipPath id="clip0_831_4920">
<rect width="60" height="60" fill="white"/>
</clipPath>
</defs>
</svg>
